<svg width="20" height="20" viewBox="0 0 20 20" xmlns="http://www.w3.org/2000/svg">
  <circle cx="10" cy="10" r="9" fill="white" stroke="#E5E7EB" />
  <path d="M10.5 4.5c1.1 0 2 .4 2.7 1.1l1.6-1.6C13.8 3 12.4 2.5 10.8 2.5 7.9 2.5 5.4 4.2 4.5 6.8l2.1 1.6c.4-1.7 1.9-2.9 3.9-2.9z" fill="#EA4335"/>
  <path d="M15.3 10.2c0-.4-.1-.8-.1-1.2H10v2.3h3.1c-.1.7-.5 1.3-1.1 1.7l1.8 1.4c1.1-1 1.5-2.4 1.5-4.2z" fill="#4285F4"/>
  <path d="M6.6 11.1c-.1-.3-.1-.6-.1-.9 0-.3 0-.6.1-.9L4.5 7.7C4.2 8.4 4 9.1 4 10c0 .9.2 1.6.5 2.3l2.1-1.2z" fill="#FBBC05"/>
  <path d="M10 15.3c1.6 0 3-.5 4-1.5l-1.8-1.4c-.5.3-1.1.5-2.2.5-1.9 0-3.4-1.2-3.9-2.9L4 12.3C4.9 14.8 7.3 15.3 10 15.3z" fill="#34A853"/>
</svg>


